<?xml version="1.0" standalone="no"?>
<!DOCTYPE svg PUBLIC "-//W3C//DTD SVG 20010904//EN"
 "http://www.w3.org/TR/2001/REC-SVG-20010904/DTD/svg10.dtd">
<svg version="1.0" xmlns="http://www.w3.org/2000/svg"
 width="1200.000000pt" height="200.000000pt" viewBox="0 0 1200.000000 200.000000"
 preserveAspectRatio="xMidYMid meet">
<metadata>
Created by potrace 1.16, written by Peter Selinger 2001-2019
</metadata>
<g transform="translate(0.000000,200.000000) scale(0.100000,-0.100000)"
fill="#000000" stroke="none">
<path d="M684 1555 c-288 -44 -519 -194 -579 -376 -26 -76 -18 -188 18 -262
71 -145 260 -268 487 -318 108 -23 305 -35 340 -21 l25 11 -30 0 c-65 2 -243
53 -333 97 -120 58 -218 148 -264 242 -28 57 -33 77 -33 142 0 65 5 85 32 141
57 116 180 216 342 278 78 30 208 61 258 61 22 0 25 2 13 10 -21 13 -178 11
-276 -5z"/>
<path d="M1600 1534 c-213 -57 -329 -199 -362 -446 -21 -158 14 -286 105 -385
77 -84 177 -117 357 -117 175 1 272 36 362 132 55 59 92 121 112 191 25 86 33
81 -124 81 l-139 0 -21 -47 c-40 -90 -100 -133 -185 -133 -63 0 -118 30 -141
77 -24 50 -25 194 -1 275 38 127 158 198 260 154 38 -16 72 -51 86 -88 l11
-28 145 0 146 0 -7 38 c-10 59 -62 164 -102 205 -43 45 -96 75 -167 93 -67 18
-264 17 -335 -2z"/>
<path d="M8813 1535 c-160 -45 -253 -146 -253 -277 0 -32 6 -73 14 -91 33 -78
129 -137 287 -177 133 -33 178 -50 194 -73 45 -65 -14 -137 -113 -137 -85 0
-152 49 -152 111 l0 29 -151 0 -152 0 6 -58 c9 -109 80 -207 174 -242 107 -40
296 -48 423 -18 115 28 219 109 263 206 16 35 22 67 22 122 0 163 -85 228
-393 300 -109 26 -138 45 -128 83 9 38 58 60 118 55 56 -6 94 -35 106 -82 l8
-31 147 -3 c167 -3 157 -9 136 87 -18 85 -59 138 -137 174 -65 31 -72 32 -217
34 -108 2 -165 -1 -202 -12z"/>
<path d="M861 1449 c-182 -30 -346 -134 -407 -256 -26 -53 -27 -193 -1 -244
48 -96 149 -175 286 -222 70 -24 96 -28 154 -25 61 3 72 7 93 31 30 35 32 94
5 129 -11 13 -38 30 -61 37 -56 17 -135 94 -149 146 -39 143 41 267 232 360
53 26 97 49 97 51 0 7 -195 2 -249 -7z"/>
<path d="M9506 1428 c-3 -13 -6 -51 -6 -85 l0 -63 -49 0 c-28 0 -52 -3 -54 -7
-3 -5 -8 -50 -11 -100 l-8 -93 51 0 51 0 -5 -37 c-15 -114 -25 -272 -19 -312
15 -104 73 -144 213 -145 47 0 112 3 144 8 l57 7 0 94 0 93 -62 -1 -63 -2 2
115 c1 63 5 130 8 148 l6 32 73 0 73 0 7 77 c11 134 17 123 -65 123 l-72 0 7
85 7 85 -139 0 c-136 0 -140 -1 -146 -22z"/>
<path d="M2540 1289 c-136 -22 -266 -121 -312 -239 -31 -80 -31 -217 1 -282
27 -57 97 -123 155 -149 96 -42 272 -44 382 -5 97 34 177 108 223 205 23 49
26 69 26 156 0 89 -3 106 -27 151 -72 136 -238 197 -448 163z m141 -195 c77
-39 80 -200 6 -281 -80 -86 -208 -31 -207 89 1 151 100 245 201 192z"/>
<path d="M3497 1290 c-46 -12 -91 -34 -135 -68 l-33 -25 7 42 7 41 -131 0
-131 0 -5 -32 c-7 -41 -56 -594 -56 -625 0 -23 2 -23 138 -23 l138 0 18 193
c20 218 31 252 88 280 32 16 41 17 64 5 15 -7 32 -21 38 -30 9 -16 4 -117 -21
-381 l-6 -67 142 0 c124 0 141 2 141 16 0 47 32 354 41 386 12 48 51 78 99 78
75 0 81 -34 55 -300 -8 -80 -15 -153 -15 -162 0 -16 13 -18 139 -18 l138 0 6
48 c20 156 39 444 33 484 -9 61 -41 107 -96 138 -65 36 -182 35 -260 -2 -30
-14 -68 -37 -84 -50 l-29 -25 -30 34 c-17 19 -42 40 -58 48 -35 19 -153 27
-202 15z"/>
<path d="M4757 1290 c-43 -11 -113 -45 -122 -60 -3 -5 -14 -14 -25 -20 -16 -9
-18 -6 -13 30 l6 40 -131 0 -131 0 -5 -42 c-8 -55 -56 -592 -56 -618 0 -19 7
-20 140 -20 121 0 140 2 140 16 0 56 34 365 44 393 21 64 94 96 139 61 24 -19
27 -28 27 -83 0 -34 -7 -125 -15 -202 -8 -77 -15 -150 -15 -162 0 -23 1 -23
140 -23 93 0 140 4 140 11 0 6 7 88 15 182 22 239 43 287 126 287 35 0 60 -17
71 -50 3 -8 -3 -103 -13 -210 -10 -107 -18 -201 -19 -207 0 -10 34 -13 140
-13 77 0 140 1 140 3 0 1 9 96 20 212 30 322 27 363 -41 427 -87 83 -268 71
-383 -25 l-29 -24 -30 34 c-17 19 -43 41 -59 49 -36 19 -150 27 -201 14z"/>
<path d="M5860 1289 c-84 -14 -171 -61 -229 -124 -69 -76 -94 -145 -95 -260
-1 -113 24 -175 95 -239 67 -61 131 -79 279 -79 174 0 258 25 341 100 37 33
99 113 99 127 0 3 -64 6 -142 6 l-142 0 -33 -32 c-26 -25 -43 -32 -88 -36 -77
-6 -111 18 -129 91 l-6 27 269 0 270 0 7 45 c15 104 -20 226 -84 288 -81 79
-244 113 -412 86z m169 -175 c13 -9 29 -32 37 -50 27 -64 27 -64 -111 -64
-138 0 -140 1 -110 61 32 61 131 90 184 53z"/>
<path d="M6786 1285 c-21 -7 -54 -28 -72 -46 l-34 -33 0 37 0 37 -129 0 -130
0 -6 -52 c-10 -91 -55 -586 -55 -607 0 -20 5 -21 140 -21 127 0 140 2 140 18
0 57 32 305 45 348 27 94 82 136 149 114 20 -6 40 -9 45 -5 6 3 3 -11 -5 -31
-25 -59 -29 -170 -10 -236 21 -73 95 -157 165 -187 103 -44 275 -47 389 -7 54
19 120 65 160 111 32 36 72 105 72 125 0 6 -49 10 -136 10 l-136 0 -37 -41
c-28 -31 -45 -42 -77 -46 -108 -14 -160 84 -119 224 37 125 183 152 231 44
l18 -41 135 0 136 0 0 -92 c0 -117 25 -178 97 -243 69 -62 128 -78 288 -77
152 1 233 22 308 81 43 34 122 128 122 145 0 3 -65 6 -143 6 -134 0 -145 -2
-163 -21 -44 -49 -136 -65 -183 -33 -21 15 -51 70 -51 94 0 7 91 10 269 10
l269 0 6 54 c8 63 -8 165 -34 215 -45 88 -130 136 -270 153 -165 19 -301 -16
-395 -103 -50 -46 -104 -130 -106 -164 0 -11 -6 0 -13 25 -41 147 -129 218
-297 242 -149 21 -305 -23 -405 -114 l-48 -43 33 57 c18 32 30 62 26 68 -7 11
-100 40 -129 40 -12 -1 -38 -7 -60 -15z m1377 -176 c24 -18 55 -94 44 -105 -2
-3 -61 -3 -130 -2 l-126 3 19 42 c34 77 134 109 193 62z"/>
<path d="M10220 1289 c-252 -42 -405 -297 -309 -518 25 -59 92 -124 153 -152
102 -45 278 -44 399 1 61 23 146 93 181 149 55 88 73 229 40 324 -52 153 -241
232 -464 196z m140 -194 c46 -24 63 -67 58 -146 -6 -82 -32 -136 -78 -161
-102 -54 -191 21 -175 148 16 132 106 205 195 159z"/>
<path d="M11122 1289 c-18 -5 -51 -28 -74 -51 l-41 -41 7 41 6 42 -133 0 -133
0 -28 -322 c-15 -178 -30 -331 -33 -341 -4 -16 6 -17 139 -15 l143 3 11 128
c19 209 37 277 85 323 30 29 42 31 127 21 19 -2 30 12 73 91 l50 93 -37 15
c-47 20 -121 26 -162 13z"/>
<path d="M11545 1290 c-182 -30 -303 -145 -335 -319 -28 -155 37 -297 161
-350 118 -51 352 -47 466 9 72 36 163 128 163 166 l0 24 -132 0 -132 0 -33
-32 c-28 -27 -42 -32 -90 -35 -69 -5 -97 13 -118 72 l-13 40 259 3 259 2 0
131 c0 127 -1 132 -27 169 -34 47 -92 86 -156 105 -61 18 -206 26 -272 15z
m160 -176 c24 -15 45 -61 45 -95 0 -18 -10 -19 -125 -19 -84 0 -125 4 -125 11
0 27 36 83 64 100 38 23 108 25 141 3z"/>
</g>
</svg>
