<?xml version="1.0" encoding="UTF-8" standalone="no"?>
<svg
   xmlns:dc="http://purl.org/dc/elements/1.1/"
   xmlns:cc="http://creativecommons.org/ns#"
   xmlns:rdf="http://www.w3.org/1999/02/22-rdf-syntax-ns#"
   xmlns:svg="http://www.w3.org/2000/svg"
   xmlns="http://www.w3.org/2000/svg"
   xmlns:sodipodi="http://sodipodi.sourceforge.net/DTD/sodipodi-0.dtd"
   xmlns:inkscape="http://www.inkscape.org/namespaces/inkscape"
   version="1.1"
   id="svg2"
   xml:space="preserve"
   width="1056"
   height="816"
   viewBox="0 0 1056 816"
   sodipodi:docname="commercestore.ai"><metadata
     id="metadata8"><rdf:RDF><cc:Work
         rdf:about=""><dc:format>image/svg+xml</dc:format><dc:type
           rdf:resource="http://purl.org/dc/dcmitype/StillImage" /></cc:Work></rdf:RDF></metadata><defs
     id="defs6"><clipPath
       clipPathUnits="userSpaceOnUse"
       id="clipPath18"><path
         d="M 0,612 H 792 V 0 H 0 Z"
         id="path16" /></clipPath></defs><sodipodi:namedview
     pagecolor="#ffffff"
     bordercolor="#666666"
     borderopacity="1"
     objecttolerance="10"
     gridtolerance="10"
     guidetolerance="10"
     inkscape:pageopacity="0"
     inkscape:pageshadow="2"
     inkscape:window-width="640"
     inkscape:window-height="480"
     id="namedview4" /><g
     id="g10"
     inkscape:groupmode="layer"
     inkscape:label="commercestore"
     transform="matrix(1.3333333,0,0,-1.3333333,0,816)"><g
       id="g12"><g
         id="g14"
         clip-path="url(#clipPath18)"><g
           id="g20"
           transform="translate(197.042,324.9805)"><path
             d="m 0,0 c -0.352,-3.871 -1.381,-6.685 -3.084,-8.436 -1.704,-1.752 -3.757,-2.626 -6.161,-2.626 -2.376,0 -4.269,0.886 -5.674,2.665 -1.409,1.781 -1.942,4.526 -1.603,8.239 0.334,3.662 1.374,6.39 3.121,8.179 1.748,1.792 3.837,2.686 6.269,2.686 2.293,0 4.139,-0.882 5.533,-2.646 C -0.202,6.294 0.331,3.609 0,0 m -6.375,21.692 c -7.621,0 -13.857,-2.059 -18.713,-6.176 -4.855,-4.123 -7.573,-9.357 -8.154,-15.712 -0.623,-6.825 1.521,-12.345 6.435,-16.556 4.006,-3.402 9.502,-5.099 16.495,-5.099 7.837,0 14.162,2.047 18.975,6.139 4.812,4.091 7.509,9.343 8.095,15.75 0.522,5.703 -0.828,10.499 -4.051,14.399 -4.008,4.834 -10.371,7.255 -19.082,7.255"
             style="fill:#1c1a4f;fill-opacity:1;fill-rule:nonzero;stroke:none"
             id="path22" /></g><g
           id="g24"
           transform="translate(277.0288,346.6724)"><path
             d="m 0,0 c -3.163,0 -5.867,-0.49 -8.112,-1.471 -2.243,-0.98 -4.8,-2.83 -7.666,-5.55 -1.072,2.328 -2.568,4.08 -4.483,5.255 -1.917,1.178 -4.613,1.766 -8.085,1.766 -3.229,0 -6.033,-0.537 -8.414,-1.607 -2.383,-1.074 -4.81,-2.877 -7.285,-5.414 l 0.557,6.079 H -59.055 L -62.862,-42.6 h 16.714 l 1.942,21.262 c 0.289,3.163 1.113,5.439 2.474,6.824 1.361,1.386 2.998,2.08 4.919,2.08 1.176,0 2.175,-0.325 2.994,-0.963 0.818,-0.64 1.358,-1.483 1.619,-2.528 0.159,-0.657 0.155,-1.897 -0.013,-3.729 L -34.31,-42.6 h 16.716 l 1.965,21.496 c 0.275,3.005 1.07,5.191 2.392,6.552 1.322,1.36 2.963,2.037 4.924,2.037 1.658,0 2.98,-0.72 3.965,-2.156 0.68,-0.917 0.933,-2.316 0.763,-4.2 L -5.755,-42.6 h 16.714 l 2.39,26.164 c 0.515,5.647 -0.415,9.8 -2.79,12.455 C 8.185,-1.327 4.664,0 0,0"
             style="fill:#1c1a4f;fill-opacity:1;fill-rule:nonzero;stroke:none"
             id="path26" /></g><g
           id="g28"
           transform="translate(355.0547,346.6724)"><path
             d="m 0,0 c -3.163,0 -5.868,-0.49 -8.112,-1.471 -2.244,-0.98 -4.8,-2.83 -7.666,-5.55 -1.072,2.328 -2.568,4.08 -4.484,5.255 -1.917,1.178 -4.613,1.766 -8.084,1.766 -3.228,0 -6.034,-0.537 -8.415,-1.607 -2.382,-1.074 -4.809,-2.877 -7.284,-5.414 l 0.556,6.079 H -59.056 L -62.862,-42.6 h 16.714 l 1.942,21.262 c 0.289,3.163 1.113,5.439 2.474,6.824 1.36,1.386 2.998,2.08 4.918,2.08 1.177,0 2.175,-0.325 2.995,-0.963 0.817,-0.64 1.358,-1.483 1.618,-2.528 0.16,-0.657 0.155,-1.897 -0.012,-3.729 L -34.31,-42.6 h 16.716 l 1.964,21.496 c 0.276,3.005 1.07,5.191 2.392,6.552 1.323,1.36 2.965,2.037 4.925,2.037 1.658,0 2.981,-0.72 3.964,-2.156 0.681,-0.917 0.935,-2.316 0.763,-4.2 L -5.755,-42.6 h 16.713 l 2.391,26.164 c 0.516,5.647 -0.416,9.8 -2.789,12.455 C 8.185,-1.327 4.663,0 0,0"
             style="fill:#1c1a4f;fill-opacity:1;fill-rule:nonzero;stroke:none"
             id="path30" /></g><g
           id="g32"
           transform="translate(387.2471,328.5898)"><path
             d="m 0,0 c 0.5,2.481 1.312,4.353 2.438,5.61 1.767,2.012 3.975,3.018 6.626,3.018 2.294,0 4.082,-0.666 5.367,-1.999 C 15.716,5.295 16.381,3.083 16.428,0 Z m 23.732,15.375 c -3.441,1.804 -8.277,2.708 -14.502,2.708 -7.674,0 -13.873,-2.018 -18.597,-6.041 -4.724,-4.028 -7.383,-9.296 -7.979,-15.81 -0.417,-4.578 0.304,-8.558 2.166,-11.944 1.862,-3.388 4.373,-5.86 7.536,-7.416 3.162,-1.556 7.626,-2.332 13.387,-2.332 6.636,0 11.814,0.908 15.53,2.724 2.27,1.113 4.367,2.718 6.331,4.71 0.206,0.175 0.411,0.347 0.596,0.561 0.143,0.162 0.243,0.287 0.376,0.442 0.274,0.306 0.54,0.626 0.807,0.948 3.04,3.661 3.064,4.584 3.064,4.584 H 15.488 l -0.593,-0.788 c -1.154,-1.258 -2.202,-2.132 -3.147,-2.63 -1.547,-0.781 -3.141,-1.177 -4.779,-1.177 -2.595,0 -4.616,0.904 -6.062,2.706 -1.032,1.257 -1.582,3.168 -1.646,5.73 h 33.427 l 0.165,1.802 c 0.5,5.495 -0.034,9.953 -1.605,13.376 -1.571,3.428 -4.077,6.045 -7.516,7.847"
             style="fill:#1c1a4f;fill-opacity:1;fill-rule:nonzero;stroke:none"
             id="path34" /></g><g
           id="g36"
           transform="translate(727.126,344.4766)"><path
             d="m 0,0 c -2.788,1.463 -5.409,2.196 -7.867,2.196 -2.351,0 -4.373,-0.554 -6.074,-1.668 -1.7,-1.111 -3.436,-3.145 -5.205,-6.099 l 0.623,6.825 h -15.61 l -3.805,-41.658 h 16.755 l 1.277,13.963 c 0.608,6.667 1.884,11.22 3.827,13.653 1.357,1.724 3.131,2.589 5.315,2.589 1.148,0 2.669,-0.393 4.564,-1.177 z"
             style="fill:#1c1a4f;fill-opacity:1;fill-rule:nonzero;stroke:none"
             id="path38" /></g><g
           id="g40"
           transform="translate(576.3252,350.5386)"><path
             d="m 0,0 c 1.172,0.873 2.838,1.313 4.995,1.313 2.623,0 4.621,-0.588 6.005,-1.766 1.378,-1.175 2.185,-3.06 2.412,-5.647 l 17.583,-0.015 c -0.222,5.959 -2.221,11.302 -5.999,14.034 -3.779,2.737 -9.504,4.101 -17.179,4.101 -6.255,0 -11.248,-0.75 -14.973,-2.255 -3.73,-1.505 -6.611,-3.567 -8.639,-6.198 -2.028,-2.63 -3.178,-5.417 -3.448,-8.375 -0.411,-4.497 1,-8.197 4.228,-11.1 3.203,-2.903 8.796,-5.235 16.774,-6.983 4.874,-1.048 7.943,-2.156 9.2,-3.338 1.258,-1.171 1.819,-2.51 1.685,-3.998 -0.145,-1.568 -0.991,-2.949 -2.531,-4.138 -1.544,-1.194 -3.638,-1.786 -6.287,-1.786 -3.551,0 -6.177,1.164 -7.876,3.491 -1.041,1.436 -1.551,2.453 -1.682,5.203 l -17.831,0.014 c -0.013,-5.806 1.778,-10.592 5.365,-14.356 3.588,-3.768 10.49,-5.647 20.705,-5.647 5.816,0 10.711,0.801 14.681,2.412 3.971,1.607 7.162,3.964 9.577,7.08 2.417,3.112 3.789,6.509 4.126,10.196 0.288,3.142 -0.251,5.981 -1.618,8.517 -1.366,2.535 -3.725,4.658 -7.078,6.371 -3.352,1.715 -9.007,3.406 -16.966,5.081 -3.216,0.653 -5.229,1.361 -6.034,2.12 -0.834,0.733 -1.209,1.555 -1.126,2.467 C -1.815,-1.944 -1.172,-0.879 0,0"
             style="fill:#1c1a4f;fill-opacity:1;fill-rule:nonzero;stroke:none"
             id="path42" /></g><g
           id="g44"
           transform="translate(632.3291,314.4263)"><path
             d="m 0,0 c -1.366,0 -2.28,0.443 -2.746,1.334 -0.302,0.571 -0.372,1.748 -0.21,3.52 l 1.349,14.762 H 7.569 L 8.637,31.304 H -0.54 l 0.966,10.553 h -16.98 l -0.699,-10.553 h -6.146 l -1.068,-11.688 h 6.147 L -19.659,4.961 c -0.424,-4.65 -0.263,-8.009 0.492,-10.085 0.751,-2.08 2.063,-3.626 3.937,-4.645 1.874,-1.021 4.884,-1.527 9.037,-1.527 3.578,0 7.469,0.431 11.67,1.292 L 5.255,1.019 C 2.981,0.341 1.229,0 0,0"
             style="fill:#1c1a4f;fill-opacity:1;fill-rule:nonzero;stroke:none"
             id="path46" /></g><g
           id="g48"
           transform="translate(672.3223,324.9805)"><path
             d="m 0,0 c -0.354,-3.871 -1.384,-6.685 -3.086,-8.436 -1.703,-1.752 -3.759,-2.626 -6.162,-2.626 -2.377,0 -4.27,0.886 -5.673,2.665 -1.408,1.781 -1.942,4.526 -1.603,8.239 0.335,3.662 1.375,6.39 3.123,8.179 1.745,1.792 3.836,2.686 6.267,2.686 2.293,0 4.14,-0.882 5.532,-2.646 C -0.203,6.294 0.328,3.609 0,0 m 12.706,14.437 c -4.009,4.834 -10.371,7.255 -19.081,7.255 -7.621,0 -13.859,-2.059 -18.714,-6.176 -4.856,-4.123 -7.572,-9.357 -8.155,-15.712 -0.622,-6.825 1.522,-12.345 6.437,-16.556 4.004,-3.402 9.501,-5.099 16.494,-5.099 7.836,0 14.162,2.047 18.974,6.139 4.812,4.091 7.511,9.343 8.095,15.75 0.521,5.703 -0.829,10.499 -4.05,14.399"
             style="fill:#1c1a4f;fill-opacity:1;fill-rule:nonzero;stroke:none"
             id="path50" /></g><g
           id="g52"
           transform="translate(162.0225,347.4561)"><path
             d="m 0,0 c -1.639,4.67 -4.151,8.25 -7.558,10.711 -4.064,2.925 -9.877,4.391 -17.441,4.391 -9.669,0 -17.379,-2.553 -23.129,-7.664 -5.752,-5.11 -9.063,-12.421 -9.932,-21.935 -0.652,-7.131 0.315,-12.988 2.903,-17.561 2.585,-4.574 5.865,-7.767 9.836,-9.583 3.972,-1.815 9.221,-2.722 15.749,-2.722 5.381,0 9.879,0.74 13.498,2.233 3.616,1.491 6.735,3.7 9.351,6.628 1.73,1.939 3.19,4.222 4.429,6.787 0.111,0.196 0.225,0.389 0.328,0.622 0.032,0.072 0.054,0.133 0.085,0.206 0.134,0.298 0.253,0.616 0.381,0.923 0.178,0.439 0.346,0.86 0.491,1.259 0.146,0.389 0.311,0.751 0.447,1.149 l -0.038,0.011 c 0.999,3.092 0.975,4.699 0.975,4.699 h -16.77 c -0.2,-0.633 -0.43,-1.206 -0.656,-1.788 -0.294,-0.699 -0.616,-1.415 -0.849,-1.927 -0.912,-1.856 -1.97,-3.418 -3.208,-4.606 -1.991,-1.905 -4.761,-2.859 -8.312,-2.859 -3.659,0 -6.39,1.179 -8.197,3.547 -1.804,2.36 -2.416,6.729 -1.833,13.102 0.471,5.145 1.661,8.921 3.575,11.326 2.534,3.238 5.907,4.855 10.111,4.855 1.857,0 3.503,-0.367 4.938,-1.096 0.701,-0.358 1.332,-0.795 1.909,-1.303 0.045,-0.04 0.093,-0.092 0.14,-0.135 0.373,-0.344 0.688,-0.755 1.008,-1.16 0.792,-1.066 1.519,-2.46 1.919,-4.384 h 0.447 16.733 c 0,0 0.481,2.191 -1.302,6.236 C 0.022,-0.025 0.006,-0.013 0,0"
             style="fill:#1c1a4f;fill-opacity:1;fill-rule:nonzero;stroke:none"
             id="path54" /></g><g
           id="g56"
           transform="translate(518.9902,328.5898)"><path
             d="m 0,0 c 0.5,2.481 1.312,4.353 2.438,5.61 1.766,2.012 3.977,3.018 6.628,3.018 2.294,0 4.081,-0.666 5.367,-1.999 C 15.716,5.295 16.381,3.083 16.428,0 Z m 23.733,15.375 c -3.441,1.804 -8.278,2.708 -14.501,2.708 -7.676,0 -13.875,-2.018 -18.596,-6.041 -4.726,-4.028 -7.386,-9.296 -7.981,-15.81 -0.417,-4.578 0.304,-8.558 2.166,-11.944 1.863,-3.388 4.373,-5.86 7.536,-7.416 3.164,-1.556 7.626,-2.332 13.387,-2.332 6.636,0 11.814,0.908 15.53,2.724 2.268,1.111 4.363,2.715 6.324,4.707 0.206,0.175 0.415,0.349 0.602,0.564 0.144,0.164 0.245,0.289 0.38,0.445 0.271,0.303 0.536,0.621 0.8,0.94 3.044,3.666 3.068,4.589 3.068,4.589 H 15.49 l -0.594,-0.788 c -1.154,-1.258 -2.203,-2.132 -3.148,-2.63 -1.546,-0.781 -3.14,-1.177 -4.779,-1.177 -2.594,0 -4.615,0.904 -6.061,2.706 -1.031,1.257 -1.581,3.168 -1.645,5.73 h 33.425 l 0.166,1.802 c 0.5,5.495 -0.033,9.953 -1.605,13.376 -1.571,3.428 -4.077,6.045 -7.516,7.847"
             style="fill:#1c1a4f;fill-opacity:1;fill-rule:nonzero;stroke:none"
             id="path58" /></g><g
           id="g60"
           transform="translate(471.3223,333.002)"><path
             d="m 0,0 c 1.747,1.791 3.839,2.685 6.27,2.685 2.293,0 4.138,-0.882 5.534,-2.646 0.824,-1.043 1.31,-2.445 1.534,-4.129 H 30.209 C 29.93,-0.064 28.568,3.438 26.108,6.415 22.101,11.25 15.737,13.67 7.029,13.67 c -7.621,0 -13.858,-2.058 -18.715,-6.176 -4.854,-4.122 -7.572,-9.357 -8.153,-15.712 -0.625,-6.825 1.521,-12.344 6.434,-16.555 4.007,-3.403 9.503,-5.099 16.496,-5.099 7.836,0 14.159,2.046 18.973,6.139 3.4,2.891 5.721,6.374 7.013,10.42 H 12.236 c -0.5,-1.267 -1.129,-2.333 -1.92,-3.145 -1.702,-1.751 -3.755,-2.625 -6.161,-2.625 -2.373,0 -4.265,0.886 -5.673,2.664 -1.408,1.781 -1.942,4.526 -1.602,8.239 0.335,3.662 1.375,6.39 3.12,8.18"
             style="fill:#1c1a4f;fill-opacity:1;fill-rule:nonzero;stroke:none"
             id="path62" /></g><g
           id="g64"
           transform="translate(738.1865,328.5898)"><path
             d="m 0,0 c 0.501,2.481 1.313,4.353 2.438,5.61 1.766,2.012 3.977,3.018 6.628,3.018 2.293,0 4.081,-0.666 5.367,-1.999 C 15.716,5.295 16.381,3.083 16.428,0 Z m 31.249,7.528 c -1.57,3.428 -4.077,6.045 -7.516,7.847 -3.441,1.804 -8.278,2.708 -14.501,2.708 -7.676,0 -13.874,-2.018 -18.596,-6.041 -4.725,-4.028 -7.385,-9.296 -7.98,-15.81 -0.418,-4.578 0.303,-8.558 2.165,-11.944 1.864,-3.388 4.373,-5.86 7.536,-7.416 3.164,-1.556 7.625,-2.332 13.387,-2.332 6.637,0 11.813,0.908 15.53,2.724 2.268,1.111 4.364,2.715 6.325,4.707 0.206,0.175 0.414,0.349 0.601,0.564 0.144,0.164 0.246,0.289 0.38,0.445 0.271,0.303 0.535,0.621 0.8,0.94 3.043,3.666 3.069,4.589 3.069,4.589 H 15.491 l -0.595,-0.788 c -1.154,-1.258 -2.203,-2.132 -3.148,-2.63 -1.546,-0.781 -3.14,-1.177 -4.779,-1.177 -2.593,0 -4.615,0.904 -6.061,2.706 -1.031,1.257 -1.582,3.168 -1.646,5.73 h 33.427 l 0.165,1.802 c 0.5,5.495 -0.033,9.953 -1.605,13.376"
             style="fill:#1c1a4f;fill-opacity:1;fill-rule:nonzero;stroke:none"
             id="path66" /></g><g
           id="g68"
           transform="translate(458.8604,344.4766)"><path
             d="m 0,0 c -2.787,1.463 -5.409,2.196 -7.866,2.196 -2.351,0 -4.373,-0.554 -6.073,-1.668 -1.7,-1.111 -3.437,-3.145 -5.207,-6.099 l 0.624,6.825 h -15.61 l -3.806,-41.658 h 16.755 l 1.277,13.963 c 0.61,6.667 1.884,11.22 3.828,13.653 1.358,1.724 3.131,2.589 5.315,2.589 1.147,0 2.669,-0.393 4.564,-1.177 z"
             style="fill:#1c1a4f;fill-opacity:1;fill-rule:nonzero;stroke:none"
             id="path70" /></g><g
           id="g72"
           transform="translate(46.0923,332.9468)"><path
             d="m 0,0 c 0,15.436 17.884,28.165 41.091,30.228 -2.164,0.192 -4.355,0.325 -6.599,0.325 -26.338,0 -47.689,-13.678 -47.689,-30.553 0,-16.875 21.351,-30.553 47.689,-30.553 2.244,0 4.435,0.134 6.599,0.325 C 17.884,-28.166 0,-15.437 0,0"
             style="fill:#1c1a4f;fill-opacity:1;fill-rule:nonzero;stroke:none"
             id="path74" /></g><g
           id="g76"
           transform="translate(89.4541,316.8965)"><path
             d="m 0,0 c -0.455,4.127 -4.229,4.91 -4.229,4.91 0,0 -12.139,3.001 -10.502,16.095 1.421,11.37 16.747,17.251 20.761,18.602 -1.819,0.187 -3.668,0.313 -5.565,0.313 -19.932,0 -36.09,-10.686 -36.09,-23.87 0,-9.972 9.25,-18.504 22.377,-22.075 C -0.276,-8.953 0.245,-2.231 0,0"
             style="fill:#1c1a4f;fill-opacity:1;fill-rule:nonzero;stroke:none"
             id="path78" /></g></g></g></g></svg>
